<?xml version="1.0" standalone="no"?><!DOCTYPE svg PUBLIC "-//W3C//DTD SVG 1.1//EN" "http://www.w3.org/Graphics/SVG/1.1/DTD/svg11.dtd"><svg t="1700150553729" class="icon" viewBox="0 0 1024 1024" version="1.1" xmlns="http://www.w3.org/2000/svg" p-id="11293" xmlns:xlink="http://www.w3.org/1999/xlink" width="200" height="200"><path d="M512 192c-17.6 0-32-14.4-32-32V96c0-17.6 14.4-32 32-32s32 14.4 32 32v64c0 17.6-14.4 32-32 32zM512 960c-17.6 0-32-14.4-32-32v-64c0-17.6 14.4-32 32-32s32 14.4 32 32v64c0 17.6-14.4 32-32 32z" p-id="11294"></path><path d="M512 512m-256 0a256 256 0 1 0 512 0 256 256 0 1 0-512 0Z" p-id="11295"></path><path d="M285.726 285.726c-12.445 12.445-32.81 12.445-45.255 0l-45.255-45.255c-12.445-12.445-12.445-32.81 0-45.255s32.81-12.445 45.255 0l45.255 45.255c12.445 12.445 12.445 32.81 0 45.255zM828.784 828.784c-12.445 12.445-32.81 12.445-45.255 0l-45.255-45.255c-12.445-12.445-12.445-32.81 0-45.255s32.81-12.445 45.255 0l45.255 45.255c12.445 12.445 12.445 32.81 0 45.255zM738.274 285.726c-12.445-12.445-12.445-32.81 0-45.255l45.255-45.255c12.445-12.445 32.81-12.445 45.255 0s12.445 32.81 0 45.255l-45.255 45.255c-12.445 12.445-32.81 12.445-45.255 0zM195.216 828.784c-12.445-12.445-12.445-32.81 0-45.255l45.255-45.255c12.445-12.445 32.81-12.445 45.255 0s12.445 32.81 0 45.255l-45.255 45.255c-12.445 12.445-32.81 12.445-45.255 0zM160 544H96c-17.6 0-32-14.4-32-32s14.4-32 32-32h64c17.6 0 32 14.4 32 32s-14.4 32-32 32zM928 544h-64c-17.6 0-32-14.4-32-32s14.4-32 32-32h64c17.6 0 32 14.4 32 32s-14.4 32-32 32z" p-id="11296"></path></svg>